<svg width="48" height="56" viewBox="0 0 48 56" fill="none" xmlns="http://www.w3.org/2000/svg">
<path d="M5.33333 48C3.86666 48 2.61155 47.4782 1.568 46.4347C0.524444 45.3911 0.00177778 44.1351 0 42.6667V24C0 20.7111 0.633777 17.6107 1.90133 14.6987C3.16888 11.7867 4.89066 9.24267 7.06666 7.06667C9.24265 4.89067 11.7875 3.16889 14.7013 1.90133C17.6151 0.633778 20.7146 0 24 0C27.2853 0 30.3857 0.633778 33.3013 1.90133C36.2168 3.16889 38.7608 4.89067 40.9333 7.06667C43.1057 9.24267 44.8284 11.7876 46.1013 14.7013C47.3742 17.6151 48.007 20.7147 47.9999 24V50.6667C47.9999 52.1333 47.4782 53.3893 46.4346 54.4347C45.3911 55.48 44.1351 56.0018 42.6666 56H26.6666C25.9111 56 25.2782 55.744 24.768 55.232C24.2577 54.72 24.0017 54.0871 24 53.3333C23.9982 52.5796 24.2542 51.9467 24.768 51.4347C25.2817 50.9227 25.9146 50.6667 26.6666 50.6667H42.6666V48H37.3333C35.8666 48 34.6115 47.4782 33.568 46.4347C32.5244 45.3911 32.0017 44.1351 32 42.6667V32C32 30.5333 32.5226 29.2782 33.568 28.2347C34.6133 27.1911 35.8684 26.6684 37.3333 26.6667H42.6666V24C42.6666 18.8444 40.8444 14.4444 37.2 10.8C33.5555 7.15556 29.1555 5.33333 24 5.33333C18.8444 5.33333 14.4444 7.15556 10.8 10.8C7.15555 14.4444 5.33333 18.8444 5.33333 24V26.6667H10.6667C12.1333 26.6667 13.3893 27.1893 14.4346 28.2347C15.48 29.28 16.0018 30.5351 16 32V42.6667C16 44.1333 15.4782 45.3893 14.4346 46.4347C13.3911 47.48 12.1351 48.0018 10.6667 48H5.33333ZM5.33333 42.6667H10.6667V32H5.33333V42.6667ZM37.3333 42.6667H42.6666V32H37.3333V42.6667Z" fill="#157BB8"/>
</svg>
