<svg width="65" height="65" viewBox="0 0 65 65" fill="none" xmlns="http://www.w3.org/2000/svg">
<path d="M57.6115 10.0493C57.5825 9.55239 57.372 9.08341 57.02 8.73143C56.668 8.37945 56.199 8.16896 55.7021 8.13994C36.3722 7.00498 20.889 12.8245 14.2875 23.7425C11.9992 27.4772 10.8715 31.8074 11.0476 36.1839C11.1923 40.2261 12.3705 44.3089 14.549 48.3333L9.59527 53.2845C9.21412 53.6656 9 54.1826 9 54.7216C9 55.2606 9.21412 55.7775 9.59527 56.1587C9.97642 56.5398 10.4934 56.754 11.0324 56.754C11.5714 56.754 12.0883 56.5398 12.4695 56.1587L17.4207 51.205C21.4425 53.381 25.5279 54.5591 29.5675 54.7038C29.8502 54.714 30.1321 54.719 30.413 54.719C34.5054 54.73 38.5201 53.603 42.0089 51.464C52.9269 44.8624 58.749 29.3817 57.6115 10.0493ZM39.9142 47.9905C34.1378 51.4894 27.3002 51.5452 20.4371 48.186L42.9408 25.6849C43.1295 25.4961 43.2792 25.2721 43.3813 25.0255C43.4835 24.7789 43.536 24.5147 43.536 24.2478C43.536 23.9809 43.4835 23.7166 43.3813 23.47C43.2792 23.2234 43.1295 22.9994 42.9408 22.8106C42.752 22.6219 42.528 22.4722 42.2814 22.3701C42.0348 22.2679 41.7706 22.2154 41.5037 22.2154C41.2368 22.2154 40.9725 22.2679 40.7259 22.3701C40.4793 22.4722 40.2553 22.6219 40.0666 22.8106L17.5654 45.3245C14.2164 38.469 14.2646 31.6136 17.7609 25.8474C23.3697 16.5874 36.7023 11.5169 53.6404 12.1212C54.2472 29.0466 49.1742 42.3817 39.9142 47.9905Z" fill="#1B5E3A"/>
</svg>
